<?xml version="1.0" encoding="UTF-8"?>
<svg width="746px" height="186px" viewBox="0 0 746 186" version="1.1" xmlns="http://www.w3.org/2000/svg" xmlns:xlink="http://www.w3.org/1999/xlink">
    <title>Untitled 7</title>
    <g id="Page-1" stroke="none" stroke-width="1" fill="none" fill-rule="evenodd">
        <g id="1200x627-remix-logo" transform="translate(1.000000, 0.000000)" fill="#121212">
            <path d="M151.744,141.947 C153.387,163.214 153.387,173.183 153.387,184.065 L104.558,184.065 C104.558,181.694 104.6,179.526 104.642,177.327 C104.774,170.492 104.912,163.365 103.813,148.971 C102.361,127.899 93.356,123.216 76.798,123.216 L62.128,123.216 L5.68434189e-14,123.216 L5.68434189e-14,84.876 L79.122,84.876 C100.037,84.876 110.494,78.464 110.494,61.489 C110.494,46.563 100.037,37.517 79.122,37.517 L5.68434189e-14,37.517 L5.68434189e-14,2.84217094e-14 L87.836,2.84217094e-14 C135.186,2.84217094e-14 158.716,22.536 158.716,58.535 C158.716,85.461 142.158,103.021 119.79,105.948 C138.672,109.753 149.71,120.582 151.744,141.947 Z" id="Path"></path>
            <path d="M5.68434189e-14,184.065 L5.68434189e-14,155.483 L51.63,155.483 C60.254,155.483 62.126,161.929 62.126,165.772 L62.126,184.065 L5.68434189e-14,184.065 Z" id="Path" fill-rule="nonzero"></path>
            <polygon id="Path" fill-rule="nonzero" points="740.943 55.524 692.548 55.524 670.523 86.474 649.079 55.524 597.206 55.524 643.862 119.467 593.148 185.745 641.544 185.745 667.336 150.416 693.127 185.745 745 185.745 693.996 117.423"></polygon>
            <path d="M436.111,77.105 C430.604,61.922 418.723,51.411 395.829,51.411 C376.413,51.411 362.503,60.171 355.548,74.477 L355.548,54.915 L308.602,54.915 L308.602,185.135 L355.548,185.135 L355.548,121.193 C355.548,101.631 361.054,88.784 376.413,88.784 C390.613,88.784 394.091,98.127 394.091,115.938 L394.091,185.135 L441.037,185.135 L441.037,121.193 C441.037,101.631 446.253,88.784 461.902,88.784 C476.102,88.784 479.29,98.127 479.29,115.938 L479.29,185.135 L526.236,185.135 L526.236,103.383 C526.236,76.229 515.804,51.411 480.159,51.411 C458.425,51.411 443.066,62.506 436.111,77.105 Z" id="Path" fill-rule="nonzero"></path>
            <path d="M259.716,134.599 C255.369,144.818 247.255,149.197 234.504,149.197 C220.304,149.197 208.712,141.606 207.553,125.547 L298.258,125.547 L298.258,112.409 C298.258,77.08 275.365,47.298 232.185,47.298 C191.904,47.298 161.766,76.788 161.766,117.956 C161.766,159.416 191.325,184.526 232.765,184.526 C266.961,184.526 290.724,167.884 297.389,138.102 L259.716,134.599 Z M208.133,102.773 C209.871,90.51 216.537,81.167 231.606,81.167 C245.516,81.167 253.05,91.094 253.63,102.773 L208.133,102.773 Z" id="Shape" fill-rule="nonzero"></path>
            <path d="M541.592,55.78 L541.592,186 L588.538,186 L588.538,55.78 L541.592,55.78 Z M541.302,43.517 L588.828,43.517 L588.828,2.056 L541.302,2.056 L541.302,43.517 Z" id="Shape" fill-rule="nonzero"></path>
        </g>
    </g>
</svg>