<svg id="visual" viewBox="0 0 900 600" width="900" height="600" xmlns="http://www.w3.org/2000/svg" xmlns:xlink="http://www.w3.org/1999/xlink" version="1.1"><path d="M0 215L30 209.8C60 204.7 120 194.3 180 189.8C240 185.3 300 186.7 360 190.3C420 194 480 200 540 206C600 212 660 218 720 217.7C780 217.3 840 210.7 870 207.3L900 204L900 0L870 0C840 0 780 0 720 0C660 0 600 0 540 0C480 0 420 0 360 0C300 0 240 0 180 0C120 0 60 0 30 0L0 0Z" fill="#272a44"></path><path d="M0 185L30 181C60 177 120 169 180 164.3C240 159.7 300 158.3 360 163.2C420 168 480 179 540 182.7C600 186.3 660 182.7 720 180.7C780 178.7 840 178.3 870 178.2L900 178L900 0L870 0C840 0 780 0 720 0C660 0 600 0 540 0C480 0 420 0 360 0C300 0 240 0 180 0C120 0 60 0 30 0L0 0Z" fill="#23263f"></path><path d="M0 141L30 139.7C60 138.3 120 135.7 180 134.8C240 134 300 135 360 137.5C420 140 480 144 540 144.7C600 145.3 660 142.7 720 134.3C780 126 840 112 870 105L900 98L900 0L870 0C840 0 780 0 720 0C660 0 600 0 540 0C480 0 420 0 360 0C300 0 240 0 180 0C120 0 60 0 30 0L0 0Z" fill="#1f223b"></path><path d="M0 71L30 72C60 73 120 75 180 80.5C240 86 300 95 360 98.5C420 102 480 100 540 100.3C600 100.7 660 103.3 720 98C780 92.7 840 79.3 870 72.7L900 66L900 0L870 0C840 0 780 0 720 0C660 0 600 0 540 0C480 0 420 0 360 0C300 0 240 0 180 0C120 0 60 0 30 0L0 0Z" fill="#1b1e37"></path><path d="M0 57L30 58.5C60 60 120 63 180 60.7C240 58.3 300 50.7 360 49.7C420 48.7 480 54.3 540 56.3C600 58.3 660 56.7 720 53.7C780 50.7 840 46.3 870 44.2L900 42L900 0L870 0C840 0 780 0 720 0C660 0 600 0 540 0C480 0 420 0 360 0C300 0 240 0 180 0C120 0 60 0 30 0L0 0Z" fill="#181b33"></path></svg>